<?xml version="1.0" encoding="iso-8859-1"?>
<!-- Generator: Adobe Illustrator 17.1.0, SVG Export Plug-In . SVG Version: 6.00 Build 0)  -->
<!DOCTYPE svg PUBLIC "-//W3C//DTD SVG 1.1//EN" "http://www.w3.org/Graphics/SVG/1.1/DTD/svg11.dtd">
<svg version="1.1" id="Capa_1" xmlns="http://www.w3.org/2000/svg" xmlns:xlink="http://www.w3.org/1999/xlink" x="0px" y="0px"
	 viewBox="0 0 184 184" style="enable-background:new 0 0 184 184;" xml:space="preserve">
<path d="M160.324,38.56h-3.574v-5.678c0-1.381-1.119-2.5-2.5-2.5h-14c-1.381,0-2.5,1.119-2.5,2.5v5.678h-12.417v-6.341
	c0-9.694-7.887-17.581-17.581-17.581H76.247c-9.694,0-17.581,7.887-17.581,17.581v6.341H46.25v-5.678c0-1.381-1.119-2.5-2.5-2.5h-14
	c-1.381,0-2.5,1.119-2.5,2.5v5.678h-3.574C10.6,38.56,0,49.16,0,62.236v83.45c0,13.076,10.6,23.676,23.676,23.676h136.648
	c13.076,0,23.676-10.6,23.676-23.676v-83.45C184,49.16,173.4,38.56,160.324,38.56z M68.666,32.219c0-4.18,3.401-7.581,7.581-7.581
	h31.505c4.18,0,7.581,3.401,7.581,7.581v6.341H68.666V32.219z M92,146.606c-23.552,0-42.645-19.093-42.645-42.645
	S68.448,61.316,92,61.316s42.645,19.093,42.645,42.645S115.552,146.606,92,146.606z M124.015,114.434
	c0,0.663-0.262,1.299-0.73,1.769c-0.469,0.469-1.104,0.733-1.767,0.734l-16.515,0.015v16.514c0,1.381-1.119,2.5-2.5,2.5H81.497
	c-1.381,0-2.5-1.119-2.5-2.5v-16.49l-16.49,0.015c-0.001,0-0.001,0-0.002,0c-0.662,0-1.297-0.263-1.766-0.73
	c-0.469-0.469-0.733-1.104-0.734-1.767l-0.019-21.005c-0.001-1.381,1.117-2.501,2.498-2.502l16.514-0.015V74.456
	c0-1.381,1.119-2.5,2.5-2.5h21.005c1.381,0,2.5,1.119,2.5,2.5v16.49l16.49-0.015c0.001,0,0.002,0,0.002,0
	c1.38,0,2.499,1.118,2.5,2.498L124.015,114.434z"/>
<g>
</g>
<g>
</g>
<g>
</g>
<g>
</g>
<g>
</g>
<g>
</g>
<g>
</g>
<g>
</g>
<g>
</g>
<g>
</g>
<g>
</g>
<g>
</g>
<g>
</g>
<g>
</g>
<g>
</g>
</svg>
