<svg height="511pt" viewBox="1 0 511.99949 511" width="511pt" xmlns="http://www.w3.org/2000/svg"><path d="m54.125 348.960938-10.003906 10.011718c4.742187 4.742188 127.03125 127.03125 132.277344 132.277344l10.007812-10.003906c4.007812-4.003906 4.011719-10.492188.007812-14.496094-23.113281-23.113281-94.683593-94.679688-117.792968-117.792969-4.003906-4.003906-10.496094-4-14.496094.003907zm0 0"/><path d="m504.640625 296.511719c-9.820313-9.820313-25.726563-9.820313-35.539063 0l-36.890624 36.882812c-4.039063 4.039063-9.515626 6.316407-15.234376 6.316407h-121.535156c-11.921875 0-21.589844-9.667969-21.589844-21.589844s9.679688-21.585938 21.589844-21.585938h53.992188c12.640625 0 22.890625-10.242187 22.890625-22.882812 0-12.636719-10.246094-22.890625-22.890625-22.890625h-111.386719c-27.953125 0-54.464844 12.445312-72.320313 33.964843l-51.347656 66.496094 79.515625 79.515625 9.0625-14.699219c6.5625-10.628906 18.164063-17.109374 30.671875-17.109374h192.707032c7.320312 0 14.328124-2.910157 19.507812-8.085938 31.226562-31.230469 18.078125-18.082031 58.796875-58.789062 9.8125-9.8125 9.8125-25.730469 0-35.542969zm0 0"/><path d="m0 403.082031v108.464844h153.210938l-130.832032-130.832031zm0 0"/><path d="m419.160156 153.65625c-3.1875-3.191406-3.1875-8.359375 0-11.550781l23.628906-23.625c3.1875-3.1875 3.1875-8.359375 0-11.546875l-23.621093-23.621094c-3.1875-3.191406-3.1875-8.359375 0-11.550781l5.34375-5.34375c12.449219-12.449219 12.15625-32.515625-.65625-44.59375l-.019531-.019531c-12.066407-12.800782-32.117188-13.09375-44.554688-.652344l-5.363281 5.359375c-3.191407 3.191406-8.359375 3.191406-11.550781 0l-23.621094-23.621094c-3.1875-3.1875-8.359375-3.1875-11.546875 0l-29.402344 29.402344-5.773437-5.773438c-12.316407-12.316406-32.382813-13.074219-45.035157-1.101562-13.128906 12.425781-13.34375 33.152343-.644531 45.847656l6.238281 6.242187-29.394531 29.394532c-3.1875 3.1875-3.1875 8.359375 0 11.546875l23.65625 23.65625c3.1875 3.191406 8.359375 3.191406 11.546875 0l4.710937-4.710938c12.480469-12.476562 32.714844-12.484375 45.199219-.019531 12.464844 12.488281 12.460938 32.722656-.019531 45.199219l-4.707031 4.710937c-3.191407 3.191406-3.191407 8.359375 0 11.550782l23.625 23.625c3.1875 3.1875 8.351562 3.1875 11.542969.007812l23.65625-23.609375c3.1875-3.183594 8.355468-3.183594 11.542968.003906l.472656.472657c12.695313 12.695312 33.421876 12.480468 45.847657-.644532 11.972656-12.652344 11.214843-32.71875-1.101563-45.035156zm0 0"/></svg>