<?xml version="1.0" encoding="UTF-8"?>
<svg width="51px" height="59px" viewBox="0 0 51 59" version="1.1" xmlns="http://www.w3.org/2000/svg" xmlns:xlink="http://www.w3.org/1999/xlink">
    <!-- Generator: Sketch 53 (72520) - https://sketchapp.com -->
    <title>umbrella</title>
    <desc>Created with Sketch.</desc>
    <g id="Page-1" stroke="none" stroke-width="1" fill="none" fill-rule="evenodd">
        <g id="umbrella" fill="#FFFFFF" fill-rule="nonzero">
            <path d="M26.5,3.025 L26.5,1 C26.5,0.447 26.052,0 25.5,0 C24.948,0 24.5,0.447 24.5,1 L24.5,3.025 C11.363,3.552 0.69,14.388 0.502,27.64 C0.499,27.908 0.638,28.254 0.826,28.445 C1.263,28.886 2.06,28.866 2.473,28.402 C3.855,26.853 5.64,26 7.5,26 C9.462,26 11.32,26.937 12.73,28.639 C12.92,28.867 13.202,29 13.5,29 C13.798,29 14.08,28.867 14.27,28.639 C15.68,26.937 17.538,26 19.5,26 C21.36,26 23.12,26.85 24.5,28.386 L24.5,54 C24.5,55.654 23.154,57 21.5,57 C19.846,57 18.5,55.654 18.5,54 C18.5,53.447 18.052,53 17.5,53 C16.948,53 16.5,53.447 16.5,54 C16.5,56.757 18.743,59 21.5,59 C24.257,59 26.5,56.757 26.5,54 L26.5,28.386 C27.88,26.85 29.64,26 31.5,26 C33.462,26 35.32,26.937 36.73,28.639 C36.92,28.867 37.202,29 37.5,29 C37.798,29 38.08,28.867 38.27,28.639 C39.68,26.937 41.538,26 43.5,26 C45.36,26 47.145,26.853 48.525,28.4 C48.941,28.867 49.738,28.886 50.173,28.444 C50.361,28.254 50.501,27.906 50.497,27.637 C50.31,14.388 39.637,3.552 26.5,3.025 Z" id="Path"></path>
            <g id="add" transform="translate(28.000000, 34.000000)">
                <path d="M17.6471429,7.61904762 L12.3809524,7.61904762 L12.3809524,2.35285714 C12.3809524,1.05904762 11.2942857,0 10,0 C8.70571429,0 7.61904762,1.05904762 7.61904762,2.35285714 L7.61904762,7.61904762 L2.35285714,7.61904762 C1.05904762,7.61904762 0,8.70571429 0,10 C0,11.2942857 1.05904762,12.3809524 2.35285714,12.3809524 L7.61904762,12.3809524 L7.61904762,17.6471429 C7.61904762,18.9409524 8.70571429,20 10,20 C11.2942857,20 12.3809524,18.9409524 12.3809524,17.6471429 L12.3809524,12.3809524 L17.6471429,12.3809524 C18.9409524,12.3809524 20,11.2942857 20,10 C20,8.70571429 18.9409524,7.61904762 17.6471429,7.61904762 Z" id="Path"></path>
            </g>
        </g>
    </g>
</svg>